<?xml version="1.0" encoding="UTF-8"?>
<svg xmlns="http://www.w3.org/2000/svg" width="3840" height="2160" viewBox="0 0 3840 2160">
<defs>
<pattern id="minor" width="40" height="40" patternUnits="userSpaceOnUse">
<path d="M40 0H0V40" fill="none" stroke="#ffffff" stroke-opacity=".025"/>
</pattern>
<pattern id="major" width="200" height="200" patternUnits="userSpaceOnUse">
<path d="M200 0H0V200" fill="none" stroke="#ffffff" stroke-opacity=".06"/>
</pattern>
<radialGradient id="blue">
<stop offset="0%" stop-color="#46A6FF" stop-opacity=".20"/>
<stop offset="100%" stop-color="#46A6FF" stop-opacity="0"/>
</radialGradient>
<radialGradient id="gold">
<stop offset="0%" stop-color="#FFD54A" stop-opacity=".18"/>
<stop offset="100%" stop-color="#FFD54A" stop-opacity="0"/>
</radialGradient>
<style>
.t{fill:#fff;fill-opacity:.10;font:22px Arial;letter-spacing:6px}
.l{stroke:#fff;stroke-opacity:.08;stroke-width:2;fill:none}
.c{stroke:#FFD54A;stroke-opacity:.35;stroke-width:2}
</style>
</defs>

<rect width="3840" height="2160" fill="#09111d"/>
<rect width="3840" height="2160" fill="url(#minor)"/>
<rect width="3840" height="2160" fill="url(#major)"/>

<ellipse cx="500" cy="350" rx="700" ry="500" fill="url(#blue)"/>
<ellipse cx="3250" cy="1700" rx="650" ry="500" fill="url(#gold)"/>

<g class="l">
<line x1="1920" y1="0" x2="1920" y2="2160"/>
<line x1="0" y1="1080" x2="3840" y2="1080"/>
<circle cx="3000" cy="520" r="180"/>
<circle cx="3000" cy="520" r="90"/>
<rect x="500" y="1450" width="620" height="360" rx="12"/>
<path d="M500 1630H1120M810 1450V1810"/>
</g>

<g class="c">
<path d="M680 380h26M693 367v26"/>
<path d="M2810 1480h26M2823 1467v26"/>
<path d="M1750 1880h26M1763 1867v26"/>
</g>

<g class="t">
<text x="160" y="120">CVSTUDIO GRID 01</text>
<text x="3150" y="140">SAFE AREA</text>
<text x="250" y="2010">BRAND SYSTEM</text>
<text x="2960" y="2020">CREATIVE STUDIO</text>
<text x="1740" y="1040" fill-opacity=".035" font-size="220">CV</text>
<text x="640" y="980">1920 PX</text>
<text x="2870" y="920">SPACING 64</text>
</g>
</svg>
