<?xml version="1.0" encoding="UTF-8"?>
<svg xmlns="http://www.w3.org/2000/svg" width="3840" height="2160" viewBox="0 0 3840 2160">
<defs>
  <pattern id="minor" width="48" height="48" patternUnits="userSpaceOnUse">
    <path d="M48 0H0V48" fill="none" stroke="#fff" stroke-opacity=".035"/>
  </pattern>
  <pattern id="major" width="240" height="240" patternUnits="userSpaceOnUse">
    <path d="M240 0H0V240" fill="none" stroke="#fff" stroke-opacity=".075" stroke-width="1.5"/>
  </pattern>
  <radialGradient id="blue"><stop stop-color="#1597ff" stop-opacity=".32"/><stop offset="1" stop-color="#1597ff" stop-opacity="0"/></radialGradient>
  <radialGradient id="gold"><stop stop-color="#ffd54a" stop-opacity=".34"/><stop offset="1" stop-color="#ffd54a" stop-opacity="0"/></radialGradient>
  <linearGradient id="bw"><stop stop-color="#fff" stop-opacity="0"/><stop offset=".2" stop-color="#fff" stop-opacity=".18"/><stop offset=".75" stop-color="#fff" stop-opacity=".08"/><stop offset="1" stop-color="#fff" stop-opacity="0"/></linearGradient>
  <linearGradient id="bg"><stop stop-color="#ffd54a" stop-opacity="0"/><stop offset=".2" stop-color="#ffd54a" stop-opacity=".42"/><stop offset=".75" stop-color="#ffd54a" stop-opacity=".18"/><stop offset="1" stop-color="#ffd54a" stop-opacity="0"/></linearGradient>
  <style>
    .txt{fill:#fff;fill-opacity:.13;font:24px Arial;letter-spacing:7px}
    .tiny{fill:#fff;fill-opacity:.10;font:17px Arial;letter-spacing:5px}
    .line{stroke:#fff;stroke-opacity:.10;stroke-width:2;fill:none}
    .dash{stroke:#fff;stroke-opacity:.12;stroke-width:2;fill:none;stroke-dasharray:14 14}
    .gold{stroke:#ffd54a;stroke-opacity:.48;stroke-width:3;fill:none}
    .blue{stroke:#56b8ff;stroke-opacity:.32;stroke-width:2;fill:none}
  </style>
</defs>

<rect width="3840" height="2160" fill="#08111d"/>
<rect width="3840" height="2160" fill="url(#minor)"/>
<rect width="3840" height="2160" fill="url(#major)"/>

<ellipse cx="420" cy="340" rx="920" ry="640" fill="url(#blue)"/>
<ellipse cx="3330" cy="1700" rx="860" ry="620" fill="url(#gold)"/>
<ellipse cx="2300" cy="520" rx="500" ry="320" fill="url(#blue)" opacity=".55"/>

<g transform="rotate(-7 1920 1080)">
  <path d="M-180 760 C520 610 1080 720 1670 620 C2100 550 2530 500 3140 520" stroke="url(#bw)" stroke-width="110" stroke-linecap="round" fill="none"/>
  <path d="M2520 1570 C2920 1450 3380 1460 3960 1340" stroke="url(#bg)" stroke-width="150" stroke-linecap="round" fill="none"/>
</g>

<g fill="#ffd54a">
  <circle cx="370" cy="570" r="10" opacity=".55"/><circle cx="430" cy="620" r="5" opacity=".35"/><circle cx="515" cy="540" r="7" opacity=".40"/>
  <circle cx="3020" cy="1380" r="11" opacity=".50"/><circle cx="3110" cy="1420" r="5" opacity=".42"/><circle cx="3250" cy="1490" r="8" opacity=".45"/>
</g>

<g class="line">
  <line x1="1920" y1="0" x2="1920" y2="2160"/><line x1="0" y1="1080" x2="3840" y2="1080"/>
  <line x1="480" y1="0" x2="480" y2="2160"/><line x1="3360" y1="0" x2="3360" y2="2160"/>
  <rect x="620" y="1320" width="760" height="440" rx="26"/><line x1="620" y1="1540" x2="1380" y2="1540"/><line x1="1000" y1="1320" x2="1000" y2="1760"/>
  <circle cx="3000" cy="520" r="220"/><circle cx="3000" cy="520" r="110"/>
</g>

<g class="dash"><rect x="2440" y="280" width="820" height="520" rx="34"/><line x1="2440" y1="540" x2="3260" y2="540"/><line x1="2850" y1="280" x2="2850" y2="800"/></g>

<g class="gold">
  <path d="M640 300h44M662 278v44"/><path d="M3110 1320h44M3132 1298v44"/><path d="M1780 1840h44M1802 1818v44"/><path d="M3500 700h44M3522 678v44"/>
</g>

<g class="blue"><path d="M1180 940h34M1197 923v34"/><path d="M2220 370h34M2237 353v34"/></g>

<text x="1680" y="1260" font-family="Arial Black,Arial" font-size="520" fill="#fff" fill-opacity=".028" transform="rotate(-7 1680 1260)">CV</text>

<g class="txt">
  <text x="140" y="130">CVSTUDIO GRID 02</text><text x="3190" y="130">SAFE AREA</text><text x="220" y="2030">BRAND SYSTEM</text><text x="2910" y="2010">CREATIVE STUDIO</text>
</g>

<g class="tiny">
  <text x="720" y="1270">WIREFRAME / 01</text><text x="2480" y="240">FIGMA FRAME / 24</text><text x="2800" y="960">SPACING 64</text>
  <text x="560" y="980">1920 PX</text><text x="1530" y="1950">RADIUS 28</text><text x="3120" y="1180">ARTBOARD</text>
</g>
</svg>
