<svg xmlns="http://www.w3.org/2000/svg" viewBox="0 0 1920 1080">
  <defs>
    <pattern id="gridMajor" width="160" height="160" patternUnits="userSpaceOnUse">
      <path d="M160 0H0V160" fill="none" stroke="rgba(255,255,255,0.08)" />
    </pattern>
    <pattern id="gridMinor" width="40" height="40" patternUnits="userSpaceOnUse">
      <path d="M40 0H0V40" fill="none" stroke="#ffffff" stroke-opacity="0.03" stroke-width="1"/>
    </pattern>
    <radialGradient id="goldGlow">
      <stop offset="0%" stop-color="#FFD54A" stop-opacity="0.18"/>
      <stop offset="100%" stop-color="#FFD54A" stop-opacity="0"/>
    </radialGradient>
    <radialGradient id="blueGlow">
      <stop offset="0%" stop-color="#4AA8FF" stop-opacity="0.15"/>
      <stop offset="100%" stop-color="#4AA8FF" stop-opacity="0"/>
    </radialGradient>
  </defs>

  <rect width="1920" height="1080" fill="url(#gridMinor)"/>
  <rect width="1920" height="1080" fill="url(#gridMajor)"/>

  <ellipse cx="250" cy="180" rx="340" ry="260" fill="url(#blueGlow)"/>
  <ellipse cx="1650" cy="840" rx="320" ry="260" fill="url(#goldGlow)"/>

  <g stroke="#ffffff" stroke-opacity="0.08" stroke-width="1">
    <line x1="960" y1="0" x2="960" y2="1080"/>
    <line x1="0" y1="540" x2="1920" y2="540"/>
    <line x1="220" y1="0" x2="220" y2="1080"/>
    <line x1="1700" y1="0" x2="1700" y2="1080"/>
  </g>

  <g stroke="#ffffff" stroke-opacity="0.18" stroke-width="1.2">
    <path d="M210 200h18M219 191v18"/>
    <path d="M1510 170h18M1519 161v18"/>
    <path d="M420 760h18M429 751v18"/>
    <path d="M1660 720h18M1669 711v18"/>
    <path d="M980 920h18M989 911v18"/>
  </g>

  <g fill="#FFD54A">
    <circle cx="219" cy="200" r="2.8"/>
    <circle cx="1519" cy="170" r="2.8"/>
    <circle cx="429" cy="760" r="2.8"/>
    <circle cx="1669" cy="720" r="2.8"/>
  </g>

  <g font-family="Arial" font-size="11" fill="#ffffff" fill-opacity="0.15" letter-spacing="2">
    <text x="120" y="70">CVSTUDIO GRID 01</text>
    <text x="1420" y="130">1920 PX</text>
    <text x="310" y="980">SAFE AREA</text>
    <text x="1430" y="1010">BRAND SYSTEM</text>
  </g>
</svg>
